<?xml version="1.0" encoding="UTF-8"?>
<svg width="16px" height="15px" viewBox="0 0 16 15" version="1.1" xmlns="http://www.w3.org/2000/svg" xmlns:xlink="http://www.w3.org/1999/xlink">
    <title>Group</title>
    <g id="Pkuda-Digitalit" stroke="none" stroke-width="1" fill="none" fill-rule="evenodd">
        <g id="FavIcon" transform="translate(0, -1)">
            <g id="Group" transform="translate(-0, 1)">
                <path d="M1.56431451,6.03443351 L4.1725019,2.76547766 L5.78998908,4.6783676 L2.42164105,7.01789282 C2.20823535,7.16611608 1.92338087,7.13267398 1.74698639,6.93869069 L1.58699417,6.76274873 C1.40352537,6.56097998 1.39377938,6.24816629 1.56431451,6.03443351" id="Fill-1" fill="#16325C" transform="translate(3.6163, 4.9378) scale(-1, 1) translate(-3.6163, -4.9378)"></path>
                <path d="M1.56431451,6.03443351 L4.1725019,2.76547766 L5.78998908,4.6783676 L2.42164105,7.01789282 C2.20823535,7.16611608 1.92338087,7.13267398 1.74698639,6.93869069 L1.58699417,6.76274873 C1.40352537,6.56097998 1.39377938,6.24816629 1.56431451,6.03443351 Z" id="Stroke-3" transform="translate(3.6163, 4.9378) scale(-1, 1) translate(-3.6163, -4.9378)"></path>
                <path d="M2.41365963,7.72020567 L3.82513552,6.81898374 L4.39344659,7.04670857 L6.03279039,6.02194683 L6.57923832,6.50016761 L5.53005568,7.61602064 L4.40698123,7.17978965 L3.51912337,7.68433401 L5.77049146,8.95959851 L7.34426542,8.43582868 L6.99453352,9.16454541 L6.43442684,9.31257132 L5.93033997,9.03831064 L5.83060041,9.0506898 L5.50819907,10.0071314 L6.46994873,9.68831525 L6.22950642,10.3487186 L5.20218692,10.6219857 L5.13661055,11.1229844 L6.12021683,10.8269394 C6.12021683,10.8269394 5.7049151,12.3299219 5.09289733,12.2388374 C5.09289733,12.2388374 4.43715981,12.2843797 2.92896222,11.3507092 L4.19672403,12.5804247 L3.63934126,13.8329113 L0,13.8329113 L2.22951148,8.25364609 L2.41365963,7.72020567 Z" id="Fill-5" fill="#16325C" transform="translate(3.6721, 9.9274) scale(-1, 1) translate(-3.6721, -9.9274)"></path>
                <path d="M2.41365963,7.72020567 L3.82513552,6.81898374 L4.39344659,7.04670857 L6.03279039,6.02194683 L6.57923832,6.50016761 L5.53005568,7.61602064 L4.40698123,7.17978965 L3.51912337,7.68433401 L5.77049146,8.95959851 L7.34426542,8.43582868 L6.99453352,9.16454541 L6.43442684,9.31257132 L5.93033997,9.03831064 L5.83060041,9.0506898 L5.50819907,10.0071314 L6.46994873,9.68831525 L6.22950642,10.3487186 L5.20218692,10.6219857 L5.13661055,11.1229844 L6.12021683,10.8269394 C6.12021683,10.8269394 5.7049151,12.3299219 5.09289733,12.2388374 C5.09289733,12.2388374 4.43715981,12.2843797 2.92896222,11.3507092 L4.19672403,12.5804247 L3.63934126,13.8329113 L0,13.8329113 L2.22951148,8.25364609 L2.41365963,7.72020567 Z" id="Stroke-7" transform="translate(3.6721, 9.9274) scale(-1, 1) translate(-3.6721, -9.9274)"></path>
                <path d="M16,2.99320793 L11.8088348,0.44314851 C11.0027858,-0.0472744926 10.0281939,-0.135500681 9.15303453,0.202738272 L6.46994939,1.23972265 C6.46994939,1.23972265 9.07104284,1.55853877 11.234978,3.03875018 C11.234978,3.03875018 9.70317313,2.82357464 8.36747684,2.73075476 C7.30886829,2.65719437 6.26924874,3.05000643 5.49922453,3.81039585 L4.04372188,5.24767832 C4.04372188,5.24767832 8.32787235,5.04273141 9.661204,5.58926556 C9.661204,5.58926556 8.90849002,5.69845942 8.06362684,5.84270148 C6.68035682,6.07885149 5.4911965,6.99546742 4.86784544,8.30348667 L4.24043791,9.61999916 C4.24043791,9.61999916 7.80328103,8.481375 8.93989665,8.45860388 C8.93989665,8.45860388 8.76243743,8.55341096 8.51028948,8.70059299 C7.50605464,9.28675543 6.90763684,10.4156069 6.96257884,11.6135068 L7.03825393,13.2635965 C7.03825393,13.2635965 9.55191441,11.0091193 10.68853,10.5764407 C9.94972955,11.6027201 9.9476066,13.0132434 10.6832978,14.0419319 L11.5488483,15 L12.5136615,12.7853757 L14.0107414,9.22029996 C14.0107414,9.22029996 13.1434468,9.47766944 12.5471323,8.95888802 C12.140551,8.6051598 11.9927282,8.02519716 12.1461818,7.49699696 C12.2854605,7.01757841 12.4832739,6.75066765 13.2142489,6.3992601 C13.3917669,6.31391943 16,2.99320793 16,2.99320793 Z" id="Fill-9" fill="#16325C" transform="translate(10.0219, 7.5) scale(-1, 1) translate(-10.0219, -7.5)"></path>
                <path d="M13.2142489,6.3992601 C13.3917669,6.31391943 16,2.99320793 16,2.99320793 L11.8088348,0.44314851 C11.0027858,-0.0472744926 10.0281939,-0.135500681 9.15303453,0.202738272 L6.46994939,1.23972265 C6.46994939,1.23972265 9.07104284,1.55853877 11.234978,3.03875018 C11.234978,3.03875018 9.70317313,2.82357464 8.36747684,2.73075476 C7.30886829,2.65719437 6.26924874,3.05000643 5.49922453,3.81039585 L4.04372188,5.24767832 C4.04372188,5.24767832 8.32787235,5.04273141 9.661204,5.58926556 C9.661204,5.58926556 8.90849002,5.69845942 8.06362684,5.84270148 C6.68035682,6.07885149 5.4911965,6.99546742 4.86784544,8.30348667 L4.24043791,9.61999916 C4.24043791,9.61999916 7.80328103,8.481375 8.93989665,8.45860388 C8.93989665,8.45860388 8.76243743,8.55341096 8.51028948,8.70059299 C7.50605464,9.28675543 6.90763684,10.4156069 6.96257884,11.6135068 L7.03825393,13.2635965 C7.03825393,13.2635965 9.55191441,11.0091193 10.68853,10.5764407 C9.94972955,11.6027201 9.9476066,13.0132434 10.6832978,14.0419319 L11.5488483,15 L12.5136615,12.7853757 L14.0107414,9.22029996 C14.0107414,9.22029996 13.1434468,9.47766944 12.5471323,8.95888802 C12.140551,8.6051598 11.9927282,8.02519716 12.1461818,7.49699696 C12.2854605,7.01757841 12.4832739,6.75066765 13.2142489,6.3992601 Z" id="Stroke-11" transform="translate(10.0219, 7.5) scale(-1, 1) translate(-10.0219, -7.5)"></path>
                <path d="M7.34426542,7.86651728 C7.34426542,8.3318621 6.9821812,8.70909643 6.5355251,8.70909643 C6.08886899,8.70909643 5.72677824,8.3318621 5.72677824,7.86651728 C5.72677824,7.40117245 6.08886899,7.02393813 6.5355251,7.02393813 C6.9821812,7.02393813 7.34426542,7.40117245 7.34426542,7.86651728" id="Fill-13" fill="#16325C" transform="translate(6.5355, 7.8665) scale(-1, 1) translate(-6.5355, -7.8665)"></path>
                <path d="M7.34426542,7.86651728 C7.34426542,8.3318621 6.9821812,8.70909643 6.5355251,8.70909643 C6.08886899,8.70909643 5.72677824,8.3318621 5.72677824,7.86651728 C5.72677824,7.40117245 6.08886899,7.02393813 6.5355251,7.02393813 C6.9821812,7.02393813 7.34426542,7.40117245 7.34426542,7.86651728 Z" id="Stroke-15" transform="translate(6.5355, 7.8665) scale(-1, 1) translate(-6.5355, -7.8665)"></path>
            </g>
        </g>
    </g>
</svg>